<svg width="426" height="138" viewBox="0 0 426 138" fill="none" xmlns="http://www.w3.org/2000/svg">
<path d="M1 9C1 4.58172 4.58172 1 9 1H417C421.418 1 425 4.58172 425 9V53H1V9Z" fill="#F7FAFF"/>
<path d="M0.5 9C0.5 4.30558 4.30558 0.5 9 0.5H417C421.694 0.5 425.5 4.30558 425.5 9H424.5C424.5 4.85786 421.142 1.5 417 1.5H9C4.85786 1.5 1.5 4.85786 1.5 9H0.5ZM425 53H1H425ZM0.5 53V9C0.5 4.30558 4.30558 0.5 9 0.5V1.5C4.85786 1.5 1.5 4.85786 1.5 9V53H0.5ZM417 0.5C421.694 0.5 425.5 4.30558 425.5 9V53H424.5V9C424.5 4.85786 421.142 1.5 417 1.5V0.5Z" fill="#E2EDFF"/>
<path d="M18.1186 28V17.8182H21.7479C22.5367 17.8182 23.1913 17.9541 23.7116 18.2259C24.2353 18.4976 24.6264 18.8738 24.8849 19.3544C25.1435 19.8317 25.2727 20.3835 25.2727 21.0099C25.2727 21.633 25.1418 22.1816 24.88 22.6555C24.6214 23.1262 24.2304 23.4924 23.7067 23.7543C23.1863 24.0161 22.5317 24.147 21.7429 24.147H18.9936V22.8246H21.6037C22.1009 22.8246 22.5052 22.7533 22.8168 22.6108C23.1316 22.4683 23.362 22.2611 23.5078 21.9893C23.6536 21.7176 23.7266 21.3911 23.7266 21.0099C23.7266 20.6255 23.652 20.2924 23.5028 20.0107C23.357 19.7289 23.1267 19.5135 22.8118 19.3643C22.5002 19.2119 22.0909 19.1357 21.5838 19.1357H19.6548V28H18.1186ZM23.1449 23.4062L25.6605 28H23.9105L21.4446 23.4062H23.1449ZM29.9382 28.1541C29.1859 28.1541 28.5379 27.9934 27.9943 27.6719C27.4541 27.3471 27.0365 26.8913 26.7415 26.3047C26.4498 25.7147 26.304 25.0237 26.304 24.2315C26.304 23.4493 26.4498 22.7599 26.7415 22.1634C27.0365 21.5668 27.4475 21.1011 27.9744 20.7663C28.5047 20.4316 29.1245 20.2642 29.8338 20.2642C30.2647 20.2642 30.6823 20.3355 31.0867 20.478C31.491 20.6205 31.8539 20.8442 32.1754 21.1491C32.4969 21.4541 32.7505 21.8501 32.9361 22.3374C33.1217 22.8213 33.2145 23.4096 33.2145 24.1023V24.6293H27.1442V23.5156H31.7578C31.7578 23.1245 31.6783 22.7782 31.5192 22.4766C31.3601 22.1716 31.1364 21.9313 30.848 21.7557C30.563 21.58 30.2282 21.4922 29.8438 21.4922C29.4261 21.4922 29.0616 21.5949 28.75 21.8004C28.4418 22.0026 28.2031 22.2678 28.0341 22.5959C27.8684 22.9207 27.7855 23.2737 27.7855 23.6548V24.5249C27.7855 25.0353 27.875 25.4695 28.054 25.8274C28.2363 26.1854 28.4898 26.4588 28.8146 26.6477C29.1394 26.8333 29.5189 26.9261 29.9531 26.9261C30.2349 26.9261 30.4917 26.8864 30.7237 26.8068C30.9557 26.724 31.1563 26.6013 31.3253 26.4389C31.4943 26.2765 31.6236 26.076 31.7131 25.8374L33.12 26.0909C33.0073 26.5052 32.8052 26.8681 32.5135 27.1797C32.2251 27.4879 31.8622 27.7282 31.4247 27.9006C30.9905 28.0696 30.495 28.1541 29.9382 28.1541ZM37.7855 31.0227C37.179 31.0227 36.657 30.9432 36.2195 30.7841C35.7853 30.625 35.4306 30.4145 35.1556 30.1527C34.8805 29.8909 34.675 29.6042 34.5391 29.2926L35.8168 28.7656C35.9063 28.9115 36.0256 29.0656 36.1747 29.228C36.3272 29.3937 36.5327 29.5346 36.7912 29.6506C37.053 29.7666 37.3895 29.8246 37.8004 29.8246C38.3639 29.8246 38.8296 29.687 39.1975 29.4119C39.5654 29.1402 39.7493 28.706 39.7493 28.1094V26.608H39.6548C39.5654 26.7704 39.4361 26.951 39.2671 27.1499C39.1013 27.3487 38.8726 27.5211 38.581 27.6669C38.2893 27.8127 37.9098 27.8857 37.4425 27.8857C36.8393 27.8857 36.2957 27.7448 35.8118 27.4631C35.3312 27.178 34.9501 26.7588 34.6683 26.2053C34.3899 25.6484 34.2507 24.964 34.2507 24.152C34.2507 23.34 34.3883 22.6439 34.6634 22.0639C34.9418 21.4839 35.3229 21.0398 35.8068 20.7315C36.2907 20.42 36.8393 20.2642 37.4524 20.2642C37.9264 20.2642 38.3092 20.3438 38.6009 20.5028C38.8925 20.6586 39.1196 20.8409 39.282 21.0497C39.4477 21.2585 39.5753 21.4425 39.6648 21.6016H39.7742V20.3636H41.2308V28.169C41.2308 28.8253 41.0784 29.3639 40.7735 29.7848C40.4685 30.2057 40.0559 30.5173 39.5355 30.7195C39.0185 30.9216 38.4351 31.0227 37.7855 31.0227ZM37.7706 26.6527C38.1982 26.6527 38.5594 26.5533 38.8544 26.3544C39.1527 26.1522 39.3781 25.8639 39.5306 25.4893C39.6863 25.1115 39.7642 24.6591 39.7642 24.1321C39.7642 23.6184 39.688 23.166 39.5355 22.7749C39.3831 22.3838 39.1593 22.0788 38.8644 21.8601C38.5694 21.638 38.2048 21.527 37.7706 21.527C37.3232 21.527 36.9503 21.643 36.652 21.875C36.3537 22.1037 36.1283 22.4152 35.9759 22.8097C35.8267 23.2041 35.7521 23.6449 35.7521 24.1321C35.7521 24.6326 35.8284 25.0717 35.9808 25.4496C36.1333 25.8274 36.3587 26.1224 36.657 26.3345C36.9586 26.5466 37.3298 26.6527 37.7706 26.6527ZM47.7818 24.8331V20.3636H49.2733V28H47.8116V26.6776H47.7321C47.5564 27.0852 47.2747 27.425 46.8869 27.6967C46.5024 27.9652 46.0235 28.0994 45.4501 28.0994C44.9596 28.0994 44.5254 27.9917 44.1476 27.7763C43.773 27.5575 43.4781 27.2344 43.2626 26.8068C43.0505 26.3793 42.9444 25.8506 42.9444 25.2209V20.3636H44.431V25.0419C44.431 25.5623 44.5751 25.9766 44.8635 26.2848C45.1518 26.593 45.5264 26.7472 45.9871 26.7472C46.2655 26.7472 46.5422 26.6776 46.8173 26.5384C47.0957 26.3991 47.3261 26.1887 47.5084 25.907C47.694 25.6252 47.7851 25.2673 47.7818 24.8331ZM52.4771 17.8182V28H50.9906V17.8182H52.4771ZM56.4192 28.169C55.9353 28.169 55.4978 28.0795 55.1067 27.9006C54.7156 27.7183 54.4058 27.4548 54.1771 27.1101C53.9517 26.7654 53.839 26.3428 53.839 25.8423C53.839 25.4115 53.9218 25.0568 54.0876 24.7784C54.2533 24.5 54.477 24.2796 54.7587 24.1172C55.0405 23.9548 55.3553 23.8321 55.7033 23.7493C56.0513 23.6664 56.406 23.6035 56.7673 23.5604C57.2246 23.5073 57.5959 23.4643 57.8809 23.4311C58.1659 23.3946 58.3731 23.3366 58.5023 23.2571C58.6316 23.1776 58.6962 23.0483 58.6962 22.8693V22.8345C58.6962 22.4003 58.5736 22.0639 58.3283 21.8253C58.0864 21.5866 57.7251 21.4673 57.2445 21.4673C56.7441 21.4673 56.3496 21.5784 56.0613 21.8004C55.7763 22.0192 55.579 22.2628 55.4697 22.5312L54.0727 22.2131C54.2384 21.7491 54.4803 21.3745 54.7985 21.0895C55.12 20.8011 55.4896 20.5923 55.9072 20.4631C56.3248 20.3305 56.7639 20.2642 57.2246 20.2642C57.5296 20.2642 57.8527 20.3007 58.1941 20.3736C58.5388 20.4432 58.8603 20.5724 59.1586 20.7614C59.4602 20.9503 59.7071 21.2204 59.8994 21.5717C60.0916 21.9197 60.1877 22.3722 60.1877 22.929V28H58.736V26.956H58.6763C58.5802 27.1482 58.4361 27.3371 58.2438 27.5227C58.0516 27.7083 57.8047 27.8625 57.5031 27.9851C57.2014 28.1077 56.8402 28.169 56.4192 28.169ZM56.7424 26.9759C57.1534 26.9759 57.5047 26.8946 57.7964 26.7322C58.0914 26.5698 58.3151 26.3577 58.4675 26.0959C58.6233 25.8307 58.7012 25.5473 58.7012 25.2457V24.2614C58.6482 24.3144 58.5454 24.3641 58.393 24.4105C58.2438 24.4536 58.0731 24.4917 57.8809 24.5249C57.6887 24.5547 57.5014 24.5829 57.3191 24.6094C57.1368 24.6326 56.9843 24.6525 56.8617 24.669C56.5734 24.7055 56.3099 24.7668 56.0712 24.853C55.8359 24.9392 55.647 25.0634 55.5045 25.2259C55.3653 25.3849 55.2957 25.5971 55.2957 25.8622C55.2957 26.2301 55.4316 26.5085 55.7033 26.6974C55.9751 26.883 56.3215 26.9759 56.7424 26.9759ZM61.8876 28V20.3636H63.3244V21.5767H63.404C63.5432 21.1657 63.7885 20.8426 64.1398 20.6072C64.4944 20.3686 64.8955 20.2493 65.3429 20.2493C65.4357 20.2493 65.5451 20.2526 65.671 20.2592C65.8003 20.2659 65.9014 20.2741 65.9743 20.2841V21.706C65.9146 21.6894 65.8086 21.6712 65.6561 21.6513C65.5037 21.6281 65.3512 21.6165 65.1987 21.6165C64.8474 21.6165 64.5342 21.6911 64.2591 21.8402C63.9873 21.986 63.7719 22.1899 63.6128 22.4517C63.4537 22.7102 63.3742 23.0052 63.3742 23.3366V28H61.8876ZM70.023 19.1406V17.8182H77.9029V19.1406H74.7261V28H73.1948V19.1406H70.023ZM79.2449 28V20.3636H80.7314V28H79.2449ZM79.9956 19.1854C79.7371 19.1854 79.515 19.0992 79.3294 18.9268C79.1471 18.7512 79.056 18.5424 79.056 18.3004C79.056 18.0552 79.1471 17.8464 79.3294 17.674C79.515 17.4983 79.7371 17.4105 79.9956 17.4105C80.2541 17.4105 80.4746 17.4983 80.6568 17.674C80.8425 17.8464 80.9353 18.0552 80.9353 18.3004C80.9353 18.5424 80.8425 18.7512 80.6568 18.9268C80.4746 19.0992 80.2541 19.1854 79.9956 19.1854ZM85.6679 28.1541C84.9287 28.1541 84.2924 27.9867 83.7588 27.652C83.2285 27.3139 82.8208 26.8482 82.5358 26.255C82.2507 25.6617 82.1082 24.9822 82.1082 24.2166C82.1082 23.4411 82.254 22.7566 82.5457 22.1634C82.8374 21.5668 83.2484 21.1011 83.7787 20.7663C84.309 20.4316 84.9337 20.2642 85.6529 20.2642C86.233 20.2642 86.75 20.3719 87.2041 20.5874C87.6582 20.7995 88.0244 21.0978 88.3028 21.4822C88.5845 21.8667 88.7519 22.3158 88.8049 22.8295H87.3582C87.2787 22.4716 87.0964 22.1634 86.8113 21.9048C86.5296 21.6463 86.1518 21.517 85.6778 21.517C85.2635 21.517 84.9006 21.6264 84.589 21.8452C84.2808 22.0606 84.0405 22.3688 83.8681 22.7699C83.6958 23.1676 83.6096 23.6383 83.6096 24.1818C83.6096 24.7386 83.6941 25.2192 83.8632 25.6236C84.0322 26.0279 84.2708 26.3411 84.5791 26.5632C84.8906 26.7853 85.2569 26.8963 85.6778 26.8963C85.9595 26.8963 86.2147 26.8449 86.4434 26.7422C86.6754 26.6361 86.8693 26.4853 87.0251 26.2898C87.1842 26.0942 87.2952 25.8589 87.3582 25.5838H88.8049C88.7519 26.0777 88.5912 26.5185 88.3227 26.9062C88.0542 27.294 87.6946 27.599 87.2439 27.821C86.7964 28.0431 86.2711 28.1541 85.6679 28.1541ZM91.4818 25.4098L91.4718 23.5952H91.7304L94.773 20.3636H96.5528L93.0826 24.0426H92.849L91.4818 25.4098ZM90.1146 28V17.8182H91.6011V28H90.1146ZM94.937 28L92.2027 24.3707L93.2268 23.3317L96.7616 28H94.937ZM100.604 28.1541C99.8519 28.1541 99.204 27.9934 98.6604 27.6719C98.1202 27.3471 97.7026 26.8913 97.4076 26.3047C97.1159 25.7147 96.9701 25.0237 96.9701 24.2315C96.9701 23.4493 97.1159 22.7599 97.4076 22.1634C97.7026 21.5668 98.1135 21.1011 98.6405 20.7663C99.1708 20.4316 99.7906 20.2642 100.5 20.2642C100.931 20.2642 101.348 20.3355 101.753 20.478C102.157 20.6205 102.52 20.8442 102.842 21.1491C103.163 21.4541 103.417 21.8501 103.602 22.3374C103.788 22.8213 103.881 23.4096 103.881 24.1023V24.6293H97.8103V23.5156H102.424C102.424 23.1245 102.344 22.7782 102.185 22.4766C102.026 22.1716 101.802 21.9313 101.514 21.7557C101.229 21.58 100.894 21.4922 100.51 21.4922C100.092 21.4922 99.7277 21.5949 99.4161 21.8004C99.1079 22.0026 98.8692 22.2678 98.7002 22.5959C98.5345 22.9207 98.4516 23.2737 98.4516 23.6548V24.5249C98.4516 25.0353 98.5411 25.4695 98.7201 25.8274C98.9024 26.1854 99.1559 26.4588 99.4807 26.6477C99.8055 26.8333 100.185 26.9261 100.619 26.9261C100.901 26.9261 101.158 26.8864 101.39 26.8068C101.622 26.724 101.822 26.6013 101.991 26.4389C102.16 26.2765 102.29 26.076 102.379 25.8374L103.786 26.0909C103.673 26.5052 103.471 26.8681 103.18 27.1797C102.891 27.4879 102.528 27.7282 102.091 27.9006C101.657 28.0696 101.161 28.1541 100.604 28.1541ZM108.815 20.3636V21.5568H104.643V20.3636H108.815ZM105.762 18.5341H107.248V25.7578C107.248 26.0462 107.292 26.2633 107.378 26.4091C107.464 26.5516 107.575 26.6494 107.711 26.7024C107.85 26.7521 108.001 26.777 108.163 26.777C108.283 26.777 108.387 26.7687 108.476 26.7521C108.566 26.7356 108.636 26.7223 108.685 26.7124L108.954 27.9403C108.868 27.9735 108.745 28.0066 108.586 28.0398C108.427 28.0762 108.228 28.0961 107.989 28.0994C107.598 28.1061 107.234 28.0365 106.896 27.8906C106.557 27.7448 106.284 27.5194 106.075 27.2145C105.866 26.9096 105.762 26.5268 105.762 26.0661V18.5341Z" fill="black"/>
<path d="M17.5795 41.2102V40.2727H24.125V41.2102H21.3807V49H20.3239V41.2102H17.5795ZM25.3797 49V42.4545H26.3854V49H25.3797ZM25.891 41.3636C25.695 41.3636 25.526 41.2969 25.3839 41.1634C25.2447 41.0298 25.1751 40.8693 25.1751 40.6818C25.1751 40.4943 25.2447 40.3338 25.3839 40.2003C25.526 40.0668 25.695 40 25.891 40C26.0871 40 26.2547 40.0668 26.3939 40.2003C26.5359 40.3338 26.6069 40.4943 26.6069 40.6818C26.6069 40.8693 26.5359 41.0298 26.3939 41.1634C26.2547 41.2969 26.0871 41.3636 25.891 41.3636ZM28.9248 46.6136L28.9078 45.3693H29.1123L31.976 42.4545H33.2203L30.1691 45.5398H30.0839L28.9248 46.6136ZM27.9873 49V40.2727H28.993V49H27.9873ZM32.1464 49L29.5896 45.7614L30.3055 45.0625L33.4248 49H32.1464ZM36.7495 49.1364C36.1188 49.1364 35.5747 48.9972 35.1174 48.7188C34.6628 48.4375 34.312 48.0455 34.0648 47.5426C33.8205 47.0369 33.6983 46.4489 33.6983 45.7784C33.6983 45.108 33.8205 44.517 34.0648 44.0057C34.312 43.4915 34.6557 43.0909 35.0961 42.804C35.5392 42.5142 36.0563 42.3693 36.6472 42.3693C36.9881 42.3693 37.3247 42.4261 37.6571 42.5398C37.9895 42.6534 38.2921 42.8381 38.5648 43.0938C38.8375 43.3466 39.0549 43.6818 39.2168 44.0994C39.3787 44.517 39.4597 45.0312 39.4597 45.642V46.0682H34.4142V45.1989H38.437C38.437 44.8295 38.3631 44.5 38.2154 44.2102C38.0705 43.9205 37.8631 43.6918 37.5932 43.5241C37.3262 43.3565 37.0108 43.2727 36.6472 43.2727C36.2466 43.2727 35.9 43.3722 35.6074 43.571C35.3176 43.767 35.0946 44.0227 34.9384 44.3381C34.7821 44.6534 34.704 44.9915 34.704 45.3523V45.9318C34.704 46.4261 34.7892 46.8452 34.9597 47.1889C35.133 47.5298 35.373 47.7898 35.6799 47.9688C35.9867 48.1449 36.3432 48.233 36.7495 48.233C37.0137 48.233 37.2523 48.196 37.4654 48.1222C37.6813 48.0455 37.8674 47.9318 38.0236 47.7812C38.1799 47.6278 38.3006 47.4375 38.3858 47.2102L39.3574 47.483C39.2551 47.8125 39.0833 48.1023 38.8418 48.3523C38.6003 48.5994 38.302 48.7926 37.9469 48.9318C37.5918 49.0682 37.1926 49.1364 36.7495 49.1364ZM43.5961 42.4545V43.3068H40.2041V42.4545H43.5961ZM41.1927 40.8864H42.1984V47.125C42.1984 47.4091 42.2396 47.6222 42.322 47.7642C42.4072 47.9034 42.5151 47.9972 42.6458 48.0455C42.7793 48.0909 42.92 48.1136 43.0677 48.1136C43.1785 48.1136 43.2694 48.108 43.3404 48.0966C43.4115 48.0824 43.4683 48.071 43.5109 48.0625L43.7154 48.9659C43.6472 48.9915 43.5521 49.017 43.4299 49.0426C43.3078 49.071 43.1529 49.0852 42.9654 49.0852C42.6813 49.0852 42.4029 49.0241 42.1302 48.902C41.8603 48.7798 41.6359 48.5938 41.4569 48.3438C41.2808 48.0938 41.1927 47.7784 41.1927 47.3977V40.8864ZM50.8505 42.4545V43.3068H47.4584V42.4545H50.8505ZM48.4471 40.8864H49.4528V47.125C49.4528 47.4091 49.4939 47.6222 49.5763 47.7642C49.6616 47.9034 49.7695 47.9972 49.9002 48.0455C50.0337 48.0909 50.1743 48.1136 50.3221 48.1136C50.4329 48.1136 50.5238 48.108 50.5948 48.0966C50.6658 48.0824 50.7226 48.071 50.7653 48.0625L50.9698 48.9659C50.9016 48.9915 50.8064 49.017 50.6843 49.0426C50.5621 49.071 50.4073 49.0852 50.2198 49.0852C49.9357 49.0852 49.6573 49.0241 49.3846 48.902C49.1147 48.7798 48.8903 48.5938 48.7113 48.3438C48.5351 48.0938 48.4471 47.7784 48.4471 47.3977V40.8864ZM54.0494 49.1534C53.6346 49.1534 53.2582 49.0753 52.9201 48.919C52.5821 48.7599 52.3136 48.5312 52.1147 48.233C51.9159 47.9318 51.8164 47.5682 51.8164 47.142C51.8164 46.767 51.8903 46.4631 52.038 46.2301C52.1858 45.9943 52.3832 45.8097 52.6304 45.6761C52.8775 45.5426 53.1503 45.4432 53.4486 45.3778C53.7497 45.3097 54.0522 45.2557 54.3562 45.2159C54.7539 45.1648 55.0764 45.1264 55.3236 45.1009C55.5736 45.0724 55.7554 45.0256 55.869 44.9602C55.9855 44.8949 56.0437 44.7812 56.0437 44.6193V44.5852C56.0437 44.1648 55.9287 43.8381 55.6986 43.6051C55.4713 43.3722 55.1261 43.2557 54.663 43.2557C54.1829 43.2557 53.8065 43.3608 53.5338 43.571C53.2611 43.7812 53.0693 44.0057 52.9585 44.2443L52.0039 43.9034C52.1744 43.5057 52.4017 43.196 52.6858 42.9744C52.9727 42.75 53.2852 42.5937 53.6233 42.5057C53.9642 42.4148 54.2994 42.3693 54.6289 42.3693C54.8392 42.3693 55.0807 42.3949 55.3534 42.446C55.6289 42.4943 55.8946 42.5952 56.1503 42.7486C56.4088 42.902 56.6233 43.1335 56.7937 43.4432C56.9642 43.7528 57.0494 44.1676 57.0494 44.6875V49H56.0437V48.1136H55.9926C55.9244 48.2557 55.8108 48.4077 55.6517 48.5696C55.4926 48.7315 55.2809 48.8693 55.0167 48.983C54.7525 49.0966 54.4301 49.1534 54.0494 49.1534ZM54.2028 48.25C54.6005 48.25 54.9358 48.1719 55.2085 48.0156C55.4841 47.8594 55.6914 47.6577 55.8307 47.4105C55.9727 47.1634 56.0437 46.9034 56.0437 46.6307V45.7102C56.0011 45.7614 55.9074 45.8082 55.7625 45.8509C55.6204 45.8906 55.4557 45.9261 55.2682 45.9574C55.0835 45.9858 54.9031 46.0114 54.727 46.0341C54.5537 46.054 54.413 46.071 54.3051 46.0852C54.0437 46.1193 53.7994 46.1747 53.5721 46.2514C53.3477 46.3253 53.1659 46.4375 53.0267 46.5881C52.8903 46.7358 52.8221 46.9375 52.8221 47.1932C52.8221 47.5426 52.9514 47.8068 53.2099 47.9858C53.4713 48.1619 53.8022 48.25 54.2028 48.25ZM59.6507 45.0625V49H58.645V42.4545H59.6166V43.4773H59.7018C59.8552 43.1449 60.0882 42.8778 60.4007 42.6761C60.7132 42.4716 61.1166 42.3693 61.6109 42.3693C62.0541 42.3693 62.4419 42.4602 62.7742 42.642C63.1066 42.821 63.3652 43.0938 63.5498 43.4602C63.7345 43.8239 63.8268 44.2841 63.8268 44.8409V49H62.8211V44.9091C62.8211 44.3949 62.6876 43.9943 62.4206 43.7074C62.1535 43.4176 61.787 43.2727 61.3211 43.2727C61.0001 43.2727 60.7132 43.3423 60.4603 43.4815C60.2103 43.6207 60.0129 43.8239 59.868 44.0909C59.7231 44.358 59.6507 44.6818 59.6507 45.0625ZM65.4245 51.4545V42.4545H66.3961V43.4943H66.5154C66.5893 43.3807 66.6916 43.2358 66.8222 43.0597C66.9558 42.8807 67.1461 42.7216 67.3933 42.5824C67.6433 42.4403 67.9813 42.3693 68.4075 42.3693C68.9586 42.3693 69.4444 42.5071 69.8649 42.7827C70.2853 43.0582 70.6134 43.4489 70.8492 43.9545C71.085 44.4602 71.2029 45.0568 71.2029 45.7443C71.2029 46.4375 71.085 47.0384 70.8492 47.5469C70.6134 48.0526 70.2867 48.4446 69.8691 48.723C69.4515 48.9986 68.97 49.1364 68.4245 49.1364C68.0041 49.1364 67.6674 49.0668 67.4146 48.9276C67.1617 48.7855 66.9671 48.625 66.8308 48.446C66.6944 48.2642 66.5893 48.1136 66.5154 47.9943H66.4302V51.4545H65.4245ZM66.4132 45.7273C66.4132 46.2216 66.4856 46.6577 66.6305 47.0355C66.7754 47.4105 66.987 47.7045 67.2654 47.9176C67.5438 48.1278 67.8847 48.233 68.2882 48.233C68.7086 48.233 69.0595 48.1222 69.3407 47.9006C69.6248 47.6761 69.8379 47.375 69.9799 46.9972C70.1248 46.6165 70.1972 46.1932 70.1972 45.7273C70.1972 45.267 70.1262 44.8523 69.9842 44.483C69.845 44.1108 69.6333 43.8168 69.3492 43.6009C69.068 43.3821 68.7143 43.2727 68.2882 43.2727C67.8791 43.2727 67.5353 43.3764 67.2569 43.5838C66.9785 43.7884 66.7683 44.0753 66.6262 44.4446C66.4842 44.8111 66.4132 45.2386 66.4132 45.7273ZM74.4232 49.1534C74.0084 49.1534 73.632 49.0753 73.2939 48.919C72.9558 48.7599 72.6874 48.5312 72.4885 48.233C72.2896 47.9318 72.1902 47.5682 72.1902 47.142C72.1902 46.767 72.2641 46.4631 72.4118 46.2301C72.5595 45.9943 72.757 45.8097 73.0041 45.6761C73.2513 45.5426 73.524 45.4432 73.8223 45.3778C74.1234 45.3097 74.426 45.2557 74.73 45.2159C75.1277 45.1648 75.4501 45.1264 75.6973 45.1009C75.9473 45.0724 76.1291 45.0256 76.2428 44.9602C76.3592 44.8949 76.4175 44.7812 76.4175 44.6193V44.5852C76.4175 44.1648 76.3024 43.8381 76.0723 43.6051C75.845 43.3722 75.4999 43.2557 75.0368 43.2557C74.5567 43.2557 74.1803 43.3608 73.9075 43.571C73.6348 43.7812 73.443 44.0057 73.3322 44.2443L72.3777 43.9034C72.5482 43.5057 72.7754 43.196 73.0595 42.9744C73.3464 42.75 73.6589 42.5937 73.997 42.5057C74.3379 42.4148 74.6732 42.3693 75.0027 42.3693C75.2129 42.3693 75.4544 42.3949 75.7271 42.446C76.0027 42.4943 76.2683 42.5952 76.524 42.7486C76.7825 42.902 76.997 43.1335 77.1675 43.4432C77.3379 43.7528 77.4232 44.1676 77.4232 44.6875V49H76.4175V48.1136H76.3663C76.2982 48.2557 76.1845 48.4077 76.0254 48.5696C75.8663 48.7315 75.6547 48.8693 75.3905 48.983C75.1263 49.0966 74.8038 49.1534 74.4232 49.1534ZM74.5766 48.25C74.9743 48.25 75.3095 48.1719 75.5822 48.0156C75.8578 47.8594 76.0652 47.6577 76.2044 47.4105C76.3464 47.1634 76.4175 46.9034 76.4175 46.6307V45.7102C76.3749 45.7614 76.2811 45.8082 76.1362 45.8509C75.9942 45.8906 75.8294 45.9261 75.6419 45.9574C75.4572 45.9858 75.2768 46.0114 75.1007 46.0341C74.9274 46.054 74.7868 46.071 74.6788 46.0852C74.4175 46.1193 74.1732 46.1747 73.9459 46.2514C73.7214 46.3253 73.5396 46.4375 73.4004 46.5881C73.2641 46.7358 73.1959 46.9375 73.1959 47.1932C73.1959 47.5426 73.3251 47.8068 73.5837 47.9858C73.845 48.1619 74.176 48.25 74.5766 48.25ZM83.0912 46.6136L83.0742 45.3693H83.2787L86.1424 42.4545H87.3867L84.3356 45.5398H84.2503L83.0912 46.6136ZM82.1537 49V40.2727H83.1594V49H82.1537ZM86.3128 49L83.756 45.7614L84.4719 45.0625L87.5912 49H86.3128ZM92.5661 46.3239V42.4545H93.5718V49H92.5661V47.892H92.4979C92.3445 48.2244 92.1058 48.5071 91.782 48.7401C91.4581 48.9702 91.049 49.0852 90.5547 49.0852C90.1456 49.0852 89.782 48.9957 89.4638 48.8168C89.1456 48.6349 88.8956 48.3622 88.7138 47.9986C88.532 47.6321 88.4411 47.1705 88.4411 46.6136V42.4545H89.4468V46.5455C89.4468 47.0227 89.5803 47.4034 89.8473 47.6875C90.1172 47.9716 90.461 48.1136 90.8786 48.1136C91.1286 48.1136 91.3828 48.0497 91.6414 47.9219C91.9027 47.794 92.1215 47.598 92.2976 47.3338C92.4766 47.0696 92.5661 46.733 92.5661 46.3239ZM95.1737 49V42.4545H96.1453V43.4432H96.2135C96.3328 43.1193 96.5487 42.8565 96.8612 42.6548C97.1737 42.4531 97.526 42.3523 97.9181 42.3523C97.9919 42.3523 98.0842 42.3537 98.195 42.3565C98.3058 42.3594 98.3896 42.3636 98.4465 42.3693V43.392C98.4124 43.3835 98.3342 43.3707 98.2121 43.3537C98.0928 43.3338 97.9663 43.3239 97.8328 43.3239C97.5146 43.3239 97.2306 43.3906 96.9806 43.5241C96.7334 43.6548 96.5374 43.8366 96.3925 44.0696C96.2504 44.2997 96.1794 44.5625 96.1794 44.858V49H95.1737ZM104.035 43.9205L103.132 44.1761C103.075 44.0256 102.991 43.8793 102.88 43.7372C102.772 43.5923 102.624 43.473 102.437 43.3793C102.249 43.2855 102.009 43.2386 101.717 43.2386C101.316 43.2386 100.982 43.331 100.715 43.5156C100.451 43.6974 100.319 43.929 100.319 44.2102C100.319 44.4602 100.41 44.6577 100.592 44.8026C100.774 44.9474 101.058 45.0682 101.444 45.1648L102.416 45.4034C103.001 45.5455 103.437 45.7628 103.724 46.0554C104.011 46.3452 104.154 46.7187 104.154 47.1761C104.154 47.5511 104.046 47.8864 103.83 48.1818C103.617 48.4773 103.319 48.7102 102.936 48.8807C102.552 49.0511 102.106 49.1364 101.597 49.1364C100.93 49.1364 100.377 48.9915 99.9398 48.7017C99.5023 48.4119 99.2253 47.9886 99.1088 47.4318L100.063 47.1932C100.154 47.5455 100.326 47.8097 100.579 47.9858C100.835 48.1619 101.168 48.25 101.58 48.25C102.049 48.25 102.421 48.1506 102.697 47.9517C102.975 47.75 103.114 47.5085 103.114 47.2273C103.114 47 103.035 46.8097 102.876 46.6562C102.717 46.5 102.472 46.3835 102.143 46.3068L101.052 46.0511C100.453 45.9091 100.012 45.6889 99.731 45.3906C99.4526 45.0895 99.3134 44.7131 99.3134 44.2614C99.3134 43.892 99.417 43.5653 99.6244 43.2812C99.8347 42.9972 100.12 42.7741 100.481 42.6122C100.845 42.4503 101.257 42.3693 101.717 42.3693C102.364 42.3693 102.873 42.5114 103.242 42.7955C103.614 43.0795 103.879 43.4545 104.035 43.9205ZM105.428 49V42.4545H106.434V49H105.428ZM105.939 41.3636C105.743 41.3636 105.574 41.2969 105.432 41.1634C105.293 41.0298 105.224 40.8693 105.224 40.6818C105.224 40.4943 105.293 40.3338 105.432 40.2003C105.574 40.0668 105.743 40 105.939 40C106.136 40 106.303 40.0668 106.442 40.2003C106.584 40.3338 106.655 40.4943 106.655 40.6818C106.655 40.8693 106.584 41.0298 106.442 41.1634C106.303 41.2969 106.136 41.3636 105.939 41.3636ZM111.171 51.4545V42.4545H112.142V43.4943H112.262C112.336 43.3807 112.438 43.2358 112.568 43.0597C112.702 42.8807 112.892 42.7216 113.14 42.5824C113.39 42.4403 113.728 42.3693 114.154 42.3693C114.705 42.3693 115.191 42.5071 115.611 42.7827C116.032 43.0582 116.36 43.4489 116.595 43.9545C116.831 44.4602 116.949 45.0568 116.949 45.7443C116.949 46.4375 116.831 47.0384 116.595 47.5469C116.36 48.0526 116.033 48.4446 115.615 48.723C115.198 48.9986 114.716 49.1364 114.171 49.1364C113.75 49.1364 113.414 49.0668 113.161 48.9276C112.908 48.7855 112.713 48.625 112.577 48.446C112.441 48.2642 112.336 48.1136 112.262 47.9943H112.176V51.4545H111.171ZM112.159 45.7273C112.159 46.2216 112.232 46.6577 112.377 47.0355C112.522 47.4105 112.733 47.7045 113.012 47.9176C113.29 48.1278 113.631 48.233 114.034 48.233C114.455 48.233 114.806 48.1222 115.087 47.9006C115.371 47.6761 115.584 47.375 115.726 46.9972C115.871 46.6165 115.943 46.1932 115.943 45.7273C115.943 45.267 115.872 44.8523 115.73 44.483C115.591 44.1108 115.38 43.8168 115.095 43.6009C114.814 43.3821 114.461 43.2727 114.034 43.2727C113.625 43.2727 113.282 43.3764 113.003 43.5838C112.725 43.7884 112.515 44.0753 112.372 44.4446C112.23 44.8111 112.159 45.2386 112.159 45.7273ZM120.988 49.1364C120.357 49.1364 119.813 48.9972 119.355 48.7188C118.901 48.4375 118.55 48.0455 118.303 47.5426C118.059 47.0369 117.936 46.4489 117.936 45.7784C117.936 45.108 118.059 44.517 118.303 44.0057C118.55 43.4915 118.894 43.0909 119.334 42.804C119.777 42.5142 120.294 42.3693 120.885 42.3693C121.226 42.3693 121.563 42.4261 121.895 42.5398C122.228 42.6534 122.53 42.8381 122.803 43.0938C123.076 43.3466 123.293 43.6818 123.455 44.0994C123.617 44.517 123.698 45.0312 123.698 45.642V46.0682H118.652V45.1989H122.675C122.675 44.8295 122.601 44.5 122.453 44.2102C122.309 43.9205 122.101 43.6918 121.831 43.5241C121.564 43.3565 121.249 43.2727 120.885 43.2727C120.485 43.2727 120.138 43.3722 119.846 43.571C119.556 43.767 119.333 44.0227 119.177 44.3381C119.02 44.6534 118.942 44.9915 118.942 45.3523V45.9318C118.942 46.4261 119.027 46.8452 119.198 47.1889C119.371 47.5298 119.611 47.7898 119.918 47.9688C120.225 48.1449 120.581 48.233 120.988 48.233C121.252 48.233 121.49 48.196 121.703 48.1222C121.919 48.0455 122.105 47.9318 122.262 47.7812C122.418 47.6278 122.539 47.4375 122.624 47.2102L123.596 47.483C123.493 47.8125 123.321 48.1023 123.08 48.3523C122.838 48.5994 122.54 48.7926 122.185 48.9318C121.83 49.0682 121.431 49.1364 120.988 49.1364ZM125.993 45.0625V49H124.988V42.4545H125.959V43.4773H126.044C126.198 43.1449 126.431 42.8778 126.743 42.6761C127.056 42.4716 127.459 42.3693 127.954 42.3693C128.397 42.3693 128.785 42.4602 129.117 42.642C129.449 42.821 129.708 43.0938 129.892 43.4602C130.077 43.8239 130.169 44.2841 130.169 44.8409V49H129.164V44.9091C129.164 44.3949 129.03 43.9943 128.763 43.7074C128.496 43.4176 128.13 43.2727 127.664 43.2727C127.343 43.2727 127.056 43.3423 126.803 43.4815C126.553 43.6207 126.356 43.8239 126.211 44.0909C126.066 44.358 125.993 44.6818 125.993 45.0625ZM134.426 49.1364C133.835 49.1364 133.317 48.9957 132.871 48.7145C132.428 48.4332 132.081 48.0398 131.831 47.5341C131.584 47.0284 131.46 46.4375 131.46 45.7614C131.46 45.0795 131.584 44.4844 131.831 43.9759C132.081 43.4673 132.428 43.0724 132.871 42.7912C133.317 42.5099 133.835 42.3693 134.426 42.3693C135.017 42.3693 135.534 42.5099 135.977 42.7912C136.423 43.0724 136.77 43.4673 137.017 43.9759C137.267 44.4844 137.392 45.0795 137.392 45.7614C137.392 46.4375 137.267 47.0284 137.017 47.5341C136.77 48.0398 136.423 48.4332 135.977 48.7145C135.534 48.9957 135.017 49.1364 134.426 49.1364ZM134.426 48.233C134.875 48.233 135.244 48.1179 135.534 47.8878C135.824 47.6577 136.038 47.3551 136.178 46.9801C136.317 46.6051 136.386 46.1989 136.386 45.7614C136.386 45.3239 136.317 44.9162 136.178 44.5384C136.038 44.1605 135.824 43.8551 135.534 43.6222C135.244 43.3892 134.875 43.2727 134.426 43.2727C133.977 43.2727 133.608 43.3892 133.318 43.6222C133.029 43.8551 132.814 44.1605 132.675 44.5384C132.536 44.9162 132.466 45.3239 132.466 45.7614C132.466 46.1989 132.536 46.6051 132.675 46.9801C132.814 47.3551 133.029 47.6577 133.318 47.8878C133.608 48.1179 133.977 48.233 134.426 48.233ZM139.693 45.0625V49H138.687V42.4545H139.659V43.4773H139.744C139.898 43.1449 140.131 42.8778 140.443 42.6761C140.756 42.4716 141.159 42.3693 141.653 42.3693C142.096 42.3693 142.484 42.4602 142.817 42.642C143.149 42.821 143.408 43.0938 143.592 43.4602C143.777 43.8239 143.869 44.2841 143.869 44.8409V49H142.863V44.9091C142.863 44.3949 142.73 43.9943 142.463 43.7074C142.196 43.4176 141.829 43.2727 141.363 43.2727C141.042 43.2727 140.756 43.3423 140.503 43.4815C140.253 43.6207 140.055 43.8239 139.91 44.0909C139.765 44.358 139.693 44.6818 139.693 45.0625ZM148.313 42.4545V43.3068H144.921V42.4545H148.313ZM145.91 40.8864H146.916V47.125C146.916 47.4091 146.957 47.6222 147.039 47.7642C147.125 47.9034 147.232 47.9972 147.363 48.0455C147.497 48.0909 147.637 48.1136 147.785 48.1136C147.896 48.1136 147.987 48.108 148.058 48.0966C148.129 48.0824 148.186 48.071 148.228 48.0625L148.433 48.9659C148.365 48.9915 148.269 49.017 148.147 49.0426C148.025 49.071 147.87 49.0852 147.683 49.0852C147.399 49.0852 147.12 49.0241 146.848 48.902C146.578 48.7798 146.353 48.5938 146.174 48.3438C145.998 48.0938 145.91 47.7784 145.91 47.3977V40.8864ZM152.175 49.1364C151.584 49.1364 151.066 48.9957 150.62 48.7145C150.176 48.4332 149.83 48.0398 149.58 47.5341C149.333 47.0284 149.209 46.4375 149.209 45.7614C149.209 45.0795 149.333 44.4844 149.58 43.9759C149.83 43.4673 150.176 43.0724 150.62 42.7912C151.066 42.5099 151.584 42.3693 152.175 42.3693C152.766 42.3693 153.283 42.5099 153.726 42.7912C154.172 43.0724 154.519 43.4673 154.766 43.9759C155.016 44.4844 155.141 45.0795 155.141 45.7614C155.141 46.4375 155.016 47.0284 154.766 47.5341C154.519 48.0398 154.172 48.4332 153.726 48.7145C153.283 48.9957 152.766 49.1364 152.175 49.1364ZM152.175 48.233C152.624 48.233 152.993 48.1179 153.283 47.8878C153.573 47.6577 153.787 47.3551 153.926 46.9801C154.066 46.6051 154.135 46.1989 154.135 45.7614C154.135 45.3239 154.066 44.9162 153.926 44.5384C153.787 44.1605 153.573 43.8551 153.283 43.6222C152.993 43.3892 152.624 43.2727 152.175 43.2727C151.726 43.2727 151.357 43.3892 151.067 43.6222C150.777 43.8551 150.563 44.1605 150.424 44.5384C150.284 44.9162 150.215 45.3239 150.215 45.7614C150.215 46.1989 150.284 46.6051 150.424 46.9801C150.563 47.3551 150.777 47.6577 151.067 47.8878C151.357 48.1179 151.726 48.233 152.175 48.233ZM157.442 45.0625V49H156.436V42.4545H157.408V43.4773H157.493C157.646 43.1449 157.879 42.8778 158.192 42.6761C158.504 42.4716 158.908 42.3693 159.402 42.3693C159.845 42.3693 160.233 42.4602 160.565 42.642C160.898 42.821 161.156 43.0938 161.341 43.4602C161.526 43.8239 161.618 44.2841 161.618 44.8409V49H160.612V44.9091C160.612 44.3949 160.479 43.9943 160.212 43.7074C159.945 43.4176 159.578 43.2727 159.112 43.2727C158.791 43.2727 158.504 43.3423 158.251 43.4815C158.001 43.6207 157.804 43.8239 157.659 44.0909C157.514 44.358 157.442 44.6818 157.442 45.0625Z" fill="#8F8F8F"/>
<path d="M15 81H1C1 78.7909 2.86057 77.0742 4.89496 76.2131C8.48278 74.6944 11 71.1412 11 67C11 62.8588 8.48278 59.3056 4.89496 57.7869C2.86057 56.9258 1 55.2091 1 53H15V81Z" fill="#F7FAFF"/>
<path d="M1 81V81C1 78.7909 2.86057 77.0742 4.89496 76.2131C8.48278 74.6944 11 71.1412 11 67C11 62.8588 8.48278 59.3056 4.89496 57.7869C2.86057 56.9258 1 55.2091 1 53V53" stroke="#E2EDFF"/>
<rect width="396" height="28" transform="translate(15 53)" fill="#F7FAFF"/>
<path d="M23 67L403 67" stroke="#E2EDFF" stroke-width="2" stroke-linecap="round" stroke-dasharray="5 5"/>
<path d="M411 53H425C425 55.2091 423.139 56.9258 421.105 57.7869C417.517 59.3056 415 62.8588 415 67C415 71.1412 417.517 74.6944 421.105 76.2131C423.139 77.0742 425 78.7909 425 81H411V53Z" fill="#F7FAFF"/>
<path d="M425 53V53C425 55.2091 423.139 56.9258 421.105 57.7869C417.517 59.3056 415 62.8588 415 67C415 71.1412 417.517 74.6944 421.105 76.2131C423.139 77.0742 425 78.7909 425 81V81" stroke="#E2EDFF"/>
<path d="M1 81H425V129C425 133.418 421.418 137 417 137H8.99999C4.58172 137 1 133.418 1 129V81Z" fill="#F7FAFF"/>
<path d="M1 81H425H1ZM425.5 129C425.5 133.694 421.694 137.5 417 137.5H9C4.30558 137.5 0.5 133.694 0.5 129H1.5C1.5 133.142 4.85786 136.5 9 136.5H417C421.142 136.5 424.5 133.142 424.5 129H425.5ZM9 137.5C4.30558 137.5 0.5 133.694 0.5 129V81H1.5V129C1.5 133.142 4.85786 136.5 9 136.5V137.5ZM425.5 81V129C425.5 133.694 421.694 137.5 417 137.5V136.5C421.142 136.5 424.5 133.142 424.5 129V81H425.5Z" fill="#E2EDFF"/>
<path d="M18.1477 97V85.3636H22.5114C23.4053 85.3636 24.1553 85.5189 24.7614 85.8295C25.3712 86.1402 25.8314 86.5758 26.142 87.1364C26.4564 87.6932 26.6136 88.3428 26.6136 89.0852C26.6136 89.8314 26.4545 90.4792 26.1364 91.0284C25.822 91.5739 25.358 91.9962 24.7443 92.2955C24.1307 92.5909 23.3769 92.7386 22.483 92.7386H19.375V90.9886H22.1989C22.7216 90.9886 23.1496 90.9167 23.483 90.7727C23.8163 90.625 24.0625 90.411 24.2216 90.1307C24.3845 89.8466 24.4659 89.4981 24.4659 89.0852C24.4659 88.6723 24.3845 88.3201 24.2216 88.0284C24.0587 87.733 23.8106 87.5095 23.4773 87.358C23.1439 87.2027 22.714 87.125 22.1875 87.125H20.2557V97H18.1477ZM24.1591 91.7273L27.0398 97H24.6875L21.858 91.7273H24.1591ZM28.1431 100.273V88.2727H30.1658V89.7159H30.2851C30.3912 89.5038 30.5408 89.2784 30.734 89.0398C30.9272 88.7973 31.1885 88.5909 31.5181 88.4205C31.8476 88.2462 32.2681 88.1591 32.7794 88.1591C33.4537 88.1591 34.0616 88.3314 34.6033 88.6761C35.1488 89.017 35.5806 89.5227 35.8988 90.1932C36.2207 90.8598 36.3817 91.678 36.3817 92.6477C36.3817 93.6061 36.2245 94.4205 35.9101 95.0909C35.5957 95.7614 35.1677 96.2727 34.626 96.625C34.0844 96.9773 33.4707 97.1534 32.7851 97.1534C32.2851 97.1534 31.8703 97.0701 31.5408 96.9034C31.2113 96.7367 30.9461 96.536 30.7453 96.3011C30.5484 96.0625 30.395 95.8371 30.2851 95.625H30.1999V100.273H28.1431ZM30.1601 92.6364C30.1601 93.2008 30.2397 93.6951 30.3988 94.1193C30.5616 94.5436 30.7946 94.875 31.0976 95.1136C31.4044 95.3485 31.7756 95.4659 32.2113 95.4659C32.6658 95.4659 33.0465 95.3447 33.3533 95.1023C33.6601 94.8561 33.8912 94.5208 34.0465 94.0966C34.2056 93.6686 34.2851 93.1818 34.2851 92.6364C34.2851 92.0947 34.2075 91.6136 34.0522 91.1932C33.8969 90.7727 33.6658 90.4432 33.359 90.2045C33.0522 89.9659 32.6696 89.8466 32.2113 89.8466C31.7719 89.8466 31.3988 89.9621 31.0919 90.1932C30.7851 90.4242 30.5522 90.7481 30.3931 91.1648C30.2378 91.5814 30.1601 92.072 30.1601 92.6364ZM41.9765 97.1591C41.1583 97.1591 40.431 97.0189 39.7947 96.7386C39.1621 96.4583 38.6621 96.0682 38.2947 95.5682C37.9272 95.0682 37.7322 94.4905 37.7094 93.8352H39.8458C39.8647 94.1496 39.9689 94.4242 40.1583 94.6591C40.3477 94.8902 40.5996 95.0701 40.914 95.1989C41.2284 95.3277 41.5806 95.392 41.9708 95.392C42.3875 95.392 42.7568 95.3201 43.0788 95.1761C43.4007 95.0284 43.6526 94.8239 43.8344 94.5625C44.0163 94.3011 44.1053 94 44.1015 93.6591C44.1053 93.3068 44.0144 92.9962 43.8288 92.7273C43.6431 92.4583 43.3742 92.2481 43.0219 92.0966C42.6734 91.9451 42.253 91.8693 41.7606 91.8693H40.7322V90.2443H41.7606C42.1659 90.2443 42.52 90.1742 42.8231 90.0341C43.1299 89.8939 43.3704 89.697 43.5447 89.4432C43.7189 89.1856 43.8041 88.8883 43.8003 88.5511C43.8041 88.2216 43.7303 87.9356 43.5788 87.6932C43.431 87.447 43.2208 87.2557 42.9481 87.1193C42.6791 86.983 42.3628 86.9148 41.9992 86.9148C41.6431 86.9148 41.3136 86.9792 41.0106 87.108C40.7075 87.2367 40.4632 87.4205 40.2776 87.6591C40.092 87.8939 39.9935 88.1742 39.9822 88.5H37.9538C37.9689 87.8485 38.1564 87.2765 38.5163 86.7841C38.8799 86.2879 39.3647 85.9015 39.9708 85.625C40.5769 85.3447 41.2568 85.2045 42.0106 85.2045C42.7871 85.2045 43.4613 85.3504 44.0333 85.642C44.6091 85.9299 45.0541 86.3182 45.3685 86.8068C45.6829 87.2955 45.8401 87.8352 45.8401 88.4261C45.8439 89.0814 45.6507 89.6307 45.2606 90.0739C44.8742 90.517 44.3666 90.8068 43.7378 90.9432V91.0341C44.556 91.1477 45.1829 91.4508 45.6185 91.9432C46.0579 92.4318 46.2757 93.0398 46.2719 93.767C46.2719 94.4186 46.0863 95.0019 45.7151 95.517C45.3477 96.0284 44.8401 96.4299 44.1924 96.7216C43.5484 97.0133 42.8098 97.1591 41.9765 97.1591ZM51.9477 97.1591C51.1901 97.1591 50.5121 97.017 49.9136 96.733C49.3151 96.4451 48.8397 96.0511 48.4874 95.5511C48.139 95.0511 47.9534 94.4792 47.9306 93.8352H49.9761C50.014 94.3125 50.2204 94.7027 50.5954 95.0057C50.9704 95.3049 51.4212 95.4545 51.9477 95.4545C52.3606 95.4545 52.728 95.3598 53.0499 95.1705C53.3719 94.9811 53.6257 94.7178 53.8113 94.3807C53.9969 94.0436 54.0878 93.6591 54.084 93.2273C54.0878 92.7879 53.995 92.3977 53.8056 92.0568C53.6162 91.7159 53.3568 91.4489 53.0272 91.2557C52.6977 91.0587 52.3189 90.9602 51.8909 90.9602C51.5424 90.9564 51.1996 91.0208 50.8624 91.1534C50.5253 91.286 50.2583 91.4602 50.0613 91.6761L48.1579 91.3636L48.7659 85.3636H55.5159V87.125H50.5102L50.1749 90.2102H50.2431C50.459 89.9564 50.764 89.7462 51.1579 89.5795C51.5518 89.4091 51.9837 89.3239 52.4534 89.3239C53.1579 89.3239 53.7867 89.4905 54.3397 89.8239C54.8927 90.1534 55.3284 90.608 55.6465 91.1875C55.9647 91.767 56.1238 92.4299 56.1238 93.1761C56.1238 93.9451 55.9458 94.6307 55.5897 95.233C55.2374 95.8314 54.7469 96.303 54.1181 96.6477C53.4931 96.9886 52.7696 97.1591 51.9477 97.1591ZM58.6064 97.125C58.2617 97.125 57.9662 97.0038 57.72 96.7614C57.4738 96.5189 57.3526 96.2235 57.3564 95.875C57.3526 95.5341 57.4738 95.2424 57.72 95C57.9662 94.7576 58.2617 94.6364 58.6064 94.6364C58.9397 94.6364 59.2295 94.7576 59.4757 95C59.7257 95.2424 59.8526 95.5341 59.8564 95.875C59.8526 96.1061 59.792 96.3163 59.6745 96.5057C59.5609 96.6951 59.4094 96.8466 59.22 96.9602C59.0344 97.0701 58.8298 97.125 58.6064 97.125ZM65.4852 97.2216C64.5496 97.2216 63.7466 96.9848 63.0761 96.5114C62.4095 96.0341 61.8962 95.3466 61.5364 94.4489C61.1803 93.5473 61.0023 92.4621 61.0023 91.1932C61.0061 89.9242 61.186 88.8447 61.542 87.9545C61.9019 87.0606 62.4152 86.3788 63.0818 85.9091C63.7523 85.4394 64.5534 85.2045 65.4852 85.2045C66.417 85.2045 67.2182 85.4394 67.8886 85.9091C68.5591 86.3788 69.0723 87.0606 69.4284 87.9545C69.7883 88.8485 69.9682 89.928 69.9682 91.1932C69.9682 92.4659 69.7883 93.553 69.4284 94.4545C69.0723 95.3523 68.5591 96.0379 67.8886 96.5114C67.222 96.9848 66.4208 97.2216 65.4852 97.2216ZM65.4852 95.4432C66.2125 95.4432 66.7864 95.0852 67.2068 94.3693C67.6311 93.6496 67.8432 92.5909 67.8432 91.1932C67.8432 90.2689 67.7466 89.4924 67.5534 88.8636C67.3602 88.2348 67.0875 87.7614 66.7352 87.4432C66.383 87.1212 65.9663 86.9602 65.4852 86.9602C64.7617 86.9602 64.1898 87.3201 63.7693 88.0398C63.3489 88.7557 63.1367 89.8068 63.133 91.1932C63.1292 92.1212 63.222 92.9015 63.4114 93.5341C63.6045 94.1667 63.8773 94.6439 64.2295 94.9659C64.5818 95.2841 65.0004 95.4432 65.4852 95.4432ZM75.8371 97.2216C74.9015 97.2216 74.0985 96.9848 73.428 96.5114C72.7613 96.0341 72.2481 95.3466 71.8882 94.4489C71.5322 93.5473 71.3541 92.4621 71.3541 91.1932C71.3579 89.9242 71.5379 88.8447 71.8939 87.9545C72.2538 87.0606 72.767 86.3788 73.4337 85.9091C74.1041 85.4394 74.9053 85.2045 75.8371 85.2045C76.7689 85.2045 77.5701 85.4394 78.2405 85.9091C78.911 86.3788 79.4242 87.0606 79.7803 87.9545C80.1401 88.8485 80.3201 89.928 80.3201 91.1932C80.3201 92.4659 80.1401 93.553 79.7803 94.4545C79.4242 95.3523 78.911 96.0379 78.2405 96.5114C77.5738 96.9848 76.7727 97.2216 75.8371 97.2216ZM75.8371 95.4432C76.5644 95.4432 77.1382 95.0852 77.5587 94.3693C77.9829 93.6496 78.1951 92.5909 78.1951 91.1932C78.1951 90.2689 78.0985 89.4924 77.9053 88.8636C77.7121 88.2348 77.4394 87.7614 77.0871 87.4432C76.7348 87.1212 76.3182 86.9602 75.8371 86.9602C75.1136 86.9602 74.5416 87.3201 74.1212 88.0398C73.7007 88.7557 73.4886 89.8068 73.4848 91.1932C73.481 92.1212 73.5738 92.9015 73.7632 93.5341C73.9564 94.1667 74.2291 94.6439 74.5814 94.9659C74.9337 95.2841 75.3523 95.4432 75.8371 95.4432ZM86.189 97.2216C85.2534 97.2216 84.4503 96.9848 83.7799 96.5114C83.1132 96.0341 82.6 95.3466 82.2401 94.4489C81.8841 93.5473 81.706 92.4621 81.706 91.1932C81.7098 89.9242 81.8897 88.8447 82.2458 87.9545C82.6056 87.0606 83.1189 86.3788 83.7856 85.9091C84.456 85.4394 85.2572 85.2045 86.189 85.2045C87.1208 85.2045 87.9219 85.4394 88.5924 85.9091C89.2628 86.3788 89.7761 87.0606 90.1322 87.9545C90.492 88.8485 90.6719 89.928 90.6719 91.1932C90.6719 92.4659 90.492 93.553 90.1322 94.4545C89.7761 95.3523 89.2628 96.0379 88.5924 96.5114C87.9257 96.9848 87.1246 97.2216 86.189 97.2216ZM86.189 95.4432C86.9162 95.4432 87.4901 95.0852 87.9106 94.3693C88.3348 93.6496 88.5469 92.5909 88.5469 91.1932C88.5469 90.2689 88.4503 89.4924 88.2572 88.8636C88.064 88.2348 87.7912 87.7614 87.439 87.4432C87.0867 87.1212 86.67 86.9602 86.189 86.9602C85.4655 86.9602 84.8935 87.3201 84.4731 88.0398C84.0526 88.7557 83.8405 89.8068 83.8367 91.1932C83.8329 92.1212 83.9257 92.9015 84.1151 93.5341C84.3083 94.1667 84.581 94.6439 84.9333 94.9659C85.2856 95.2841 85.7041 95.4432 86.189 95.4432Z" fill="black"/>
<path d="M20.75 121H18.0568V112.273H20.8693C21.7159 112.273 22.4403 112.447 23.0426 112.797C23.6449 113.143 24.1065 113.642 24.4276 114.293C24.7486 114.94 24.9091 115.716 24.9091 116.619C24.9091 117.528 24.7472 118.311 24.4233 118.967C24.0994 119.621 23.6278 120.124 23.0085 120.476C22.3892 120.825 21.6364 121 20.75 121ZM19.1136 120.062H20.6818C21.4034 120.062 22.0014 119.923 22.4759 119.645C22.9503 119.366 23.304 118.97 23.5369 118.456C23.7699 117.942 23.8864 117.33 23.8864 116.619C23.8864 115.915 23.7713 115.308 23.5412 114.8C23.3111 114.288 22.9673 113.896 22.5099 113.624C22.0526 113.348 21.483 113.21 20.8011 113.21H19.1136V120.062ZM26.3055 121V114.455H27.3111V121H26.3055ZM26.8168 113.364C26.6208 113.364 26.4518 113.297 26.3097 113.163C26.1705 113.03 26.1009 112.869 26.1009 112.682C26.1009 112.494 26.1705 112.334 26.3097 112.2C26.4518 112.067 26.6208 112 26.8168 112C27.0128 112 27.1805 112.067 27.3197 112.2C27.4617 112.334 27.5327 112.494 27.5327 112.682C27.5327 112.869 27.4617 113.03 27.3197 113.163C27.1805 113.297 27.0128 113.364 26.8168 113.364ZM28.9131 114.455H29.9188V121.477C29.9188 121.881 29.8492 122.23 29.71 122.526C29.5736 122.821 29.3662 123.05 29.0878 123.212C28.8123 123.374 28.4642 123.455 28.0438 123.455C28.0097 123.455 27.9756 123.455 27.9415 123.455C27.9074 123.455 27.8733 123.455 27.8392 123.455V122.517C27.8733 122.517 27.9046 122.517 27.933 122.517C27.9614 122.517 27.9927 122.517 28.0267 122.517C28.3336 122.517 28.558 122.426 28.7 122.244C28.8421 122.065 28.9131 121.81 28.9131 121.477V114.455ZM29.4074 113.364C29.2114 113.364 29.0424 113.297 28.9003 113.163C28.7611 113.03 28.6915 112.869 28.6915 112.682C28.6915 112.494 28.7611 112.334 28.9003 112.2C29.0424 112.067 29.2114 112 29.4074 112C29.6035 112 29.7711 112.067 29.9103 112.2C30.0523 112.334 30.1233 112.494 30.1233 112.682C30.1233 112.869 30.0523 113.03 29.9103 113.163C29.7711 113.297 29.6035 113.364 29.4074 113.364ZM35.6458 118.324V114.455H36.6514V121H35.6458V119.892H35.5776C35.4242 120.224 35.1855 120.507 34.8617 120.74C34.5378 120.97 34.1287 121.085 33.6344 121.085C33.2253 121.085 32.8617 120.996 32.5435 120.817C32.2253 120.635 31.9753 120.362 31.7935 119.999C31.6117 119.632 31.5208 119.17 31.5208 118.614V114.455H32.5264V118.545C32.5264 119.023 32.66 119.403 32.927 119.688C33.1969 119.972 33.5407 120.114 33.9583 120.114C34.2083 120.114 34.4625 120.05 34.7211 119.922C34.9824 119.794 35.2012 119.598 35.3773 119.334C35.5563 119.07 35.6458 118.733 35.6458 118.324ZM40.1796 121.153C39.7648 121.153 39.3884 121.075 39.0503 120.919C38.7122 120.76 38.4438 120.531 38.2449 120.233C38.046 119.932 37.9466 119.568 37.9466 119.142C37.9466 118.767 38.0205 118.463 38.1682 118.23C38.3159 117.994 38.5134 117.81 38.7605 117.676C39.0077 117.543 39.2804 117.443 39.5787 117.378C39.8798 117.31 40.1824 117.256 40.4864 117.216C40.8841 117.165 41.2065 117.126 41.4537 117.101C41.7037 117.072 41.8855 117.026 41.9992 116.96C42.1156 116.895 42.1739 116.781 42.1739 116.619V116.585C42.1739 116.165 42.0588 115.838 41.8287 115.605C41.6014 115.372 41.2563 115.256 40.7932 115.256C40.3131 115.256 39.9367 115.361 39.6639 115.571C39.3912 115.781 39.1994 116.006 39.0887 116.244L38.1341 115.903C38.3046 115.506 38.5318 115.196 38.8159 114.974C39.1029 114.75 39.4154 114.594 39.7534 114.506C40.0943 114.415 40.4296 114.369 40.7591 114.369C40.9693 114.369 41.2108 114.395 41.4835 114.446C41.7591 114.494 42.0247 114.595 42.2804 114.749C42.5389 114.902 42.7534 115.134 42.9239 115.443C43.0943 115.753 43.1796 116.168 43.1796 116.688V121H42.1739V120.114H42.1227C42.0546 120.256 41.9409 120.408 41.7818 120.57C41.6227 120.732 41.4111 120.869 41.1469 120.983C40.8827 121.097 40.5602 121.153 40.1796 121.153ZM40.333 120.25C40.7307 120.25 41.0659 120.172 41.3387 120.016C41.6142 119.859 41.8216 119.658 41.9608 119.411C42.1029 119.163 42.1739 118.903 42.1739 118.631V117.71C42.1313 117.761 42.0375 117.808 41.8926 117.851C41.7506 117.891 41.5858 117.926 41.3983 117.957C41.2137 117.986 41.0333 118.011 40.8571 118.034C40.6838 118.054 40.5432 118.071 40.4352 118.085C40.1739 118.119 39.9296 118.175 39.7023 118.251C39.4779 118.325 39.296 118.437 39.1568 118.588C39.0205 118.736 38.9523 118.937 38.9523 119.193C38.9523 119.543 39.0815 119.807 39.3401 119.986C39.6014 120.162 39.9324 120.25 40.333 120.25ZM45.7808 112.273V121H44.7751V112.273H45.7808ZM53.3644 114.455V115.307H49.9723V114.455H53.3644ZM50.961 112.886H51.9667V119.125C51.9667 119.409 52.0079 119.622 52.0902 119.764C52.1755 119.903 52.2834 119.997 52.4141 120.045C52.5476 120.091 52.6883 120.114 52.836 120.114C52.9468 120.114 53.0377 120.108 53.1087 120.097C53.1797 120.082 53.2365 120.071 53.2792 120.062L53.4837 120.966C53.4155 120.991 53.3204 121.017 53.1982 121.043C53.076 121.071 52.9212 121.085 52.7337 121.085C52.4496 121.085 52.1712 121.024 51.8985 120.902C51.6286 120.78 51.4042 120.594 51.2252 120.344C51.049 120.094 50.961 119.778 50.961 119.398V112.886ZM56.5633 121.153C56.1485 121.153 55.7721 121.075 55.4341 120.919C55.096 120.76 54.8275 120.531 54.6287 120.233C54.4298 119.932 54.3304 119.568 54.3304 119.142C54.3304 118.767 54.4042 118.463 54.5519 118.23C54.6997 117.994 54.8971 117.81 55.1443 117.676C55.3914 117.543 55.6642 117.443 55.9625 117.378C56.2636 117.31 56.5662 117.256 56.8701 117.216C57.2679 117.165 57.5903 117.126 57.8375 117.101C58.0875 117.072 58.2693 117.026 58.3829 116.96C58.4994 116.895 58.5576 116.781 58.5576 116.619V116.585C58.5576 116.165 58.4426 115.838 58.2125 115.605C57.9852 115.372 57.64 115.256 57.1769 115.256C56.6968 115.256 56.3204 115.361 56.0477 115.571C55.775 115.781 55.5832 116.006 55.4724 116.244L54.5179 115.903C54.6883 115.506 54.9156 115.196 55.1997 114.974C55.4866 114.75 55.7991 114.594 56.1372 114.506C56.4781 114.415 56.8133 114.369 57.1429 114.369C57.3531 114.369 57.5946 114.395 57.8673 114.446C58.1429 114.494 58.4085 114.595 58.6642 114.749C58.9227 114.902 59.1372 115.134 59.3076 115.443C59.4781 115.753 59.5633 116.168 59.5633 116.688V121H58.5576V120.114H58.5065C58.4383 120.256 58.3247 120.408 58.1656 120.57C58.0065 120.732 57.7948 120.869 57.5306 120.983C57.2664 121.097 56.944 121.153 56.5633 121.153ZM56.7167 120.25C57.1144 120.25 57.4497 120.172 57.7224 120.016C57.998 119.859 58.2054 119.658 58.3446 119.411C58.4866 119.163 58.5576 118.903 58.5576 118.631V117.71C58.515 117.761 58.4213 117.808 58.2764 117.851C58.1343 117.891 57.9696 117.926 57.7821 117.957C57.5974 117.986 57.417 118.011 57.2409 118.034C57.0676 118.054 56.9269 118.071 56.819 118.085C56.5576 118.119 56.3133 118.175 56.086 118.251C55.8616 118.325 55.6798 118.437 55.5406 118.588C55.4042 118.736 55.336 118.937 55.336 119.193C55.336 119.543 55.4653 119.807 55.7238 119.986C55.9852 120.162 56.3162 120.25 56.7167 120.25ZM62.1646 117.062V121H61.1589V114.455H62.1305V115.477H62.2157C62.3691 115.145 62.6021 114.878 62.9146 114.676C63.2271 114.472 63.6305 114.369 64.1248 114.369C64.568 114.369 64.9558 114.46 65.2882 114.642C65.6205 114.821 65.8791 115.094 66.0637 115.46C66.2484 115.824 66.3407 116.284 66.3407 116.841V121H65.335V116.909C65.335 116.395 65.2015 115.994 64.9345 115.707C64.6674 115.418 64.3009 115.273 63.835 115.273C63.514 115.273 63.2271 115.342 62.9742 115.482C62.7242 115.621 62.5268 115.824 62.3819 116.091C62.237 116.358 62.1646 116.682 62.1646 117.062ZM70.5805 123.591C70.0947 123.591 69.6771 123.528 69.3276 123.403C68.9782 123.281 68.687 123.119 68.454 122.918C68.2239 122.719 68.0407 122.506 67.9043 122.278L68.7055 121.716C68.7964 121.835 68.9114 121.972 69.0506 122.125C69.1898 122.281 69.3802 122.416 69.6217 122.53C69.866 122.646 70.1856 122.705 70.5805 122.705C71.1089 122.705 71.545 122.577 71.8887 122.321C72.2325 122.065 72.4043 121.665 72.4043 121.119V119.79H72.3191C72.2452 119.909 72.1401 120.057 72.0038 120.233C71.8702 120.406 71.6771 120.561 71.4242 120.697C71.1742 120.831 70.8361 120.898 70.41 120.898C69.8816 120.898 69.4072 120.773 68.9867 120.523C68.5691 120.273 68.2381 119.909 67.9938 119.432C67.7523 118.955 67.6316 118.375 67.6316 117.693C67.6316 117.023 67.7495 116.439 67.9853 115.942C68.2211 115.442 68.5492 115.055 68.9697 114.783C69.3901 114.507 69.8759 114.369 70.4271 114.369C70.8532 114.369 71.1913 114.44 71.4413 114.582C71.6941 114.722 71.8873 114.881 72.0208 115.06C72.1572 115.236 72.2623 115.381 72.3361 115.494H72.4384V114.455H73.41V121.188C73.41 121.75 73.2822 122.207 73.0265 122.56C72.7736 122.915 72.4327 123.175 72.0038 123.339C71.5776 123.507 71.1032 123.591 70.5805 123.591ZM70.5464 119.994C70.9498 119.994 71.2907 119.902 71.5691 119.717C71.8475 119.533 72.0592 119.267 72.204 118.92C72.3489 118.574 72.4214 118.159 72.4214 117.676C72.4214 117.205 72.3504 116.788 72.2083 116.428C72.0663 116.067 71.856 115.784 71.5776 115.58C71.2992 115.375 70.9555 115.273 70.5464 115.273C70.1202 115.273 69.7651 115.381 69.481 115.597C69.1998 115.812 68.9881 116.102 68.8461 116.466C68.7069 116.83 68.6373 117.233 68.6373 117.676C68.6373 118.131 68.7083 118.533 68.8504 118.882C68.9952 119.229 69.2083 119.501 69.4896 119.7C69.7736 119.896 70.1259 119.994 70.5464 119.994ZM76.9371 121.153C76.5223 121.153 76.1459 121.075 75.8078 120.919C75.4697 120.76 75.2013 120.531 75.0024 120.233C74.8035 119.932 74.7041 119.568 74.7041 119.142C74.7041 118.767 74.778 118.463 74.9257 118.23C75.0734 117.994 75.2709 117.81 75.518 117.676C75.7652 117.543 76.0379 117.443 76.3362 117.378C76.6373 117.31 76.9399 117.256 77.2439 117.216C77.6416 117.165 77.964 117.126 78.2112 117.101C78.4612 117.072 78.643 117.026 78.7567 116.96C78.8731 116.895 78.9314 116.781 78.9314 116.619V116.585C78.9314 116.165 78.8163 115.838 78.5862 115.605C78.3589 115.372 78.0138 115.256 77.5507 115.256C77.0706 115.256 76.6942 115.361 76.4214 115.571C76.1487 115.781 75.9569 116.006 75.8462 116.244L74.8916 115.903C75.0621 115.506 75.2893 115.196 75.5734 114.974C75.8604 114.75 76.1729 114.594 76.5109 114.506C76.8518 114.415 77.1871 114.369 77.5166 114.369C77.7268 114.369 77.9683 114.395 78.241 114.446C78.5166 114.494 78.7822 114.595 79.0379 114.749C79.2964 114.902 79.5109 115.134 79.6814 115.443C79.8518 115.753 79.9371 116.168 79.9371 116.688V121H78.9314V120.114H78.8802C78.8121 120.256 78.6984 120.408 78.5393 120.57C78.3802 120.732 78.1686 120.869 77.9044 120.983C77.6402 121.097 77.3177 121.153 76.9371 121.153ZM77.0905 120.25C77.4882 120.25 77.8234 120.172 78.0962 120.016C78.3717 119.859 78.5791 119.658 78.7183 119.411C78.8604 119.163 78.9314 118.903 78.9314 118.631V117.71C78.8888 117.761 78.795 117.808 78.6501 117.851C78.5081 117.891 78.3433 117.926 78.1558 117.957C77.9712 117.986 77.7908 118.011 77.6146 118.034C77.4413 118.054 77.3007 118.071 77.1927 118.085C76.9314 118.119 76.6871 118.175 76.4598 118.251C76.2354 118.325 76.0535 118.437 75.9143 118.588C75.778 118.736 75.7098 118.937 75.7098 119.193C75.7098 119.543 75.839 119.807 76.0976 119.986C76.3589 120.162 76.6899 120.25 77.0905 120.25ZM82.5383 112.273V121H81.5326V112.273H82.5383ZM90.1048 121.119C89.4628 121.119 88.9159 120.945 88.4642 120.595C88.0125 120.243 87.6673 119.733 87.4287 119.065C87.1901 118.395 87.0708 117.585 87.0708 116.636C87.0708 115.693 87.1901 114.888 87.4287 114.22C87.6702 113.55 88.0168 113.038 88.4685 112.686C88.923 112.331 89.4685 112.153 90.1048 112.153C90.7412 112.153 91.2852 112.331 91.7369 112.686C92.1915 113.038 92.5381 113.55 92.7767 114.22C93.0182 114.888 93.1389 115.693 93.1389 116.636C93.1389 117.585 93.0196 118.395 92.781 119.065C92.5423 119.733 92.1972 120.243 91.7455 120.595C91.2938 120.945 90.7469 121.119 90.1048 121.119ZM90.1048 120.182C90.7412 120.182 91.2355 119.875 91.5878 119.261C91.9401 118.648 92.1162 117.773 92.1162 116.636C92.1162 115.881 92.0352 115.237 91.8733 114.706C91.7142 114.175 91.4841 113.77 91.183 113.491C90.8847 113.213 90.5253 113.074 90.1048 113.074C89.4742 113.074 88.9813 113.385 88.6262 114.007C88.271 114.626 88.0935 115.503 88.0935 116.636C88.0935 117.392 88.173 118.034 88.3321 118.562C88.4912 119.091 88.7199 119.493 89.0182 119.768C89.3193 120.044 89.6815 120.182 90.1048 120.182ZM97.5864 112.273V121H96.5296V113.381H96.4785L94.3478 114.795V113.722L96.5296 112.273H97.5864ZM106.486 112.273H107.543V118.511C107.543 119.068 107.44 119.541 107.236 119.93C107.031 120.32 106.743 120.615 106.371 120.817C105.998 121.018 105.56 121.119 105.054 121.119C104.577 121.119 104.152 121.033 103.78 120.859C103.408 120.683 103.115 120.433 102.902 120.109C102.689 119.786 102.582 119.401 102.582 118.955H103.622C103.622 119.202 103.683 119.418 103.805 119.602C103.93 119.784 104.101 119.926 104.317 120.028C104.533 120.131 104.778 120.182 105.054 120.182C105.358 120.182 105.616 120.118 105.829 119.99C106.043 119.862 106.204 119.675 106.315 119.428C106.429 119.178 106.486 118.872 106.486 118.511V112.273ZM113.409 118.324V114.455H114.415V121H113.409V119.892H113.341C113.187 120.224 112.949 120.507 112.625 120.74C112.301 120.97 111.892 121.085 111.398 121.085C110.989 121.085 110.625 120.996 110.307 120.817C109.989 120.635 109.739 120.362 109.557 119.999C109.375 119.632 109.284 119.17 109.284 118.614V114.455H110.29V118.545C110.29 119.023 110.423 119.403 110.69 119.688C110.96 119.972 111.304 120.114 111.722 120.114C111.972 120.114 112.226 120.05 112.484 119.922C112.746 119.794 112.964 119.598 113.141 119.334C113.32 119.07 113.409 118.733 113.409 118.324ZM117.022 112.273V121H116.017V112.273H117.022ZM118.624 121V114.455H119.63V121H118.624ZM119.136 113.364C118.94 113.364 118.771 113.297 118.629 113.163C118.489 113.03 118.42 112.869 118.42 112.682C118.42 112.494 118.489 112.334 118.629 112.2C118.771 112.067 118.94 112 119.136 112C119.332 112 119.499 112.067 119.639 112.2C119.781 112.334 119.852 112.494 119.852 112.682C119.852 112.869 119.781 113.03 119.639 113.163C119.499 113.297 119.332 113.364 119.136 113.364ZM124.35 121V120.233L127.231 117.08C127.569 116.71 127.847 116.389 128.066 116.116C128.285 115.841 128.447 115.582 128.552 115.341C128.66 115.097 128.714 114.841 128.714 114.574C128.714 114.267 128.64 114.001 128.492 113.777C128.347 113.553 128.148 113.379 127.895 113.257C127.643 113.135 127.358 113.074 127.043 113.074C126.708 113.074 126.415 113.143 126.165 113.283C125.918 113.419 125.726 113.611 125.59 113.858C125.457 114.105 125.39 114.395 125.39 114.727H124.384C124.384 114.216 124.502 113.767 124.738 113.381C124.974 112.994 125.295 112.693 125.701 112.477C126.11 112.261 126.569 112.153 127.077 112.153C127.589 112.153 128.042 112.261 128.437 112.477C128.832 112.693 129.141 112.984 129.366 113.351C129.59 113.717 129.702 114.125 129.702 114.574C129.702 114.895 129.644 115.209 129.528 115.516C129.414 115.82 129.215 116.159 128.931 116.534C128.65 116.906 128.259 117.361 127.759 117.898L125.799 119.994V120.062H129.856V121H124.35ZM134.222 121.119C133.58 121.119 133.033 120.945 132.582 120.595C132.13 120.243 131.785 119.733 131.546 119.065C131.307 118.395 131.188 117.585 131.188 116.636C131.188 115.693 131.307 114.888 131.546 114.22C131.788 113.55 132.134 113.038 132.586 112.686C133.04 112.331 133.586 112.153 134.222 112.153C134.859 112.153 135.403 112.331 135.854 112.686C136.309 113.038 136.655 113.55 136.894 114.22C137.136 114.888 137.256 115.693 137.256 116.636C137.256 117.585 137.137 118.395 136.898 119.065C136.66 119.733 136.315 120.243 135.863 120.595C135.411 120.945 134.864 121.119 134.222 121.119ZM134.222 120.182C134.859 120.182 135.353 119.875 135.705 119.261C136.057 118.648 136.234 117.773 136.234 116.636C136.234 115.881 136.153 115.237 135.991 114.706C135.832 114.175 135.601 113.77 135.3 113.491C135.002 113.213 134.643 113.074 134.222 113.074C133.592 113.074 133.099 113.385 132.743 114.007C132.388 114.626 132.211 115.503 132.211 116.636C132.211 117.392 132.29 118.034 132.449 118.562C132.609 119.091 132.837 119.493 133.136 119.768C133.437 120.044 133.799 120.182 134.222 120.182ZM138.636 121V120.233L141.516 117.08C141.854 116.71 142.133 116.389 142.352 116.116C142.57 115.841 142.732 115.582 142.837 115.341C142.945 115.097 142.999 114.841 142.999 114.574C142.999 114.267 142.925 114.001 142.778 113.777C142.633 113.553 142.434 113.379 142.181 113.257C141.928 113.135 141.644 113.074 141.329 113.074C140.994 113.074 140.701 113.143 140.451 113.283C140.204 113.419 140.012 113.611 139.876 113.858C139.742 114.105 139.675 114.395 139.675 114.727H138.67C138.67 114.216 138.788 113.767 139.023 113.381C139.259 112.994 139.58 112.693 139.986 112.477C140.396 112.261 140.854 112.153 141.363 112.153C141.874 112.153 142.327 112.261 142.722 112.477C143.117 112.693 143.427 112.984 143.651 113.351C143.876 113.717 143.988 114.125 143.988 114.574C143.988 114.895 143.93 115.209 143.813 115.516C143.7 115.82 143.501 116.159 143.217 116.534C142.935 116.906 142.545 117.361 142.045 117.898L140.084 119.994V120.062H144.141V121H138.636ZM145.269 119.21V118.341L149.104 112.273H149.735V113.619H149.309L146.411 118.205V118.273H151.576V119.21H145.269ZM149.377 121V118.946V118.541V112.273H150.383V121H149.377ZM158.54 118.511C158.196 118.511 157.882 118.428 157.598 118.26C157.314 118.089 157.086 117.862 156.916 117.578C156.748 117.294 156.665 116.98 156.665 116.636C156.665 116.29 156.748 115.976 156.916 115.695C157.086 115.411 157.314 115.185 157.598 115.017C157.882 114.847 158.196 114.761 158.54 114.761C158.886 114.761 159.2 114.847 159.481 115.017C159.765 115.185 159.991 115.411 160.159 115.695C160.329 115.976 160.415 116.29 160.415 116.636C160.415 116.98 160.329 117.294 160.159 117.578C159.991 117.862 159.765 118.089 159.481 118.26C159.2 118.428 158.886 118.511 158.54 118.511ZM168.781 112.273V121H167.724V113.381H167.673L165.542 114.795V113.722L167.724 112.273H168.781ZM171.051 121V120.233L173.932 117.08C174.27 116.71 174.548 116.389 174.767 116.116C174.986 115.841 175.148 115.582 175.253 115.341C175.361 115.097 175.415 114.841 175.415 114.574C175.415 114.267 175.341 114.001 175.193 113.777C175.048 113.553 174.849 113.379 174.597 113.257C174.344 113.135 174.06 113.074 173.744 113.074C173.409 113.074 173.116 113.143 172.866 113.283C172.619 113.419 172.427 113.611 172.291 113.858C172.158 114.105 172.091 114.395 172.091 114.727H171.085C171.085 114.216 171.203 113.767 171.439 113.381C171.675 112.994 171.996 112.693 172.402 112.477C172.811 112.261 173.27 112.153 173.778 112.153C174.29 112.153 174.743 112.261 175.138 112.477C175.533 112.693 175.842 112.984 176.067 113.351C176.291 113.717 176.403 114.125 176.403 114.574C176.403 114.895 176.345 115.209 176.229 115.516C176.115 115.82 175.916 116.159 175.632 116.534C175.351 116.906 174.96 117.361 174.46 117.898L172.5 119.994V120.062H176.557V121H171.051ZM178.827 119.884C178.616 119.884 178.436 119.808 178.285 119.658C178.135 119.507 178.06 119.327 178.06 119.116C178.06 118.906 178.135 118.726 178.285 118.575C178.436 118.425 178.616 118.349 178.827 118.349C179.037 118.349 179.217 118.425 179.368 118.575C179.518 118.726 179.594 118.906 179.594 119.116C179.594 119.256 179.558 119.384 179.487 119.5C179.419 119.616 179.327 119.71 179.21 119.781C179.097 119.849 178.969 119.884 178.827 119.884ZM178.827 115.469C178.616 115.469 178.436 115.393 178.285 115.243C178.135 115.092 178.06 114.912 178.06 114.702C178.06 114.491 178.135 114.311 178.285 114.161C178.436 114.01 178.616 113.935 178.827 113.935C179.037 113.935 179.217 114.01 179.368 114.161C179.518 114.311 179.594 114.491 179.594 114.702C179.594 114.841 179.558 114.969 179.487 115.085C179.419 115.202 179.327 115.295 179.21 115.366C179.097 115.435 178.969 115.469 178.827 115.469ZM183.988 121.119C183.346 121.119 182.799 120.945 182.347 120.595C181.896 120.243 181.55 119.733 181.312 119.065C181.073 118.395 180.954 117.585 180.954 116.636C180.954 115.693 181.073 114.888 181.312 114.22C181.553 113.55 181.9 113.038 182.352 112.686C182.806 112.331 183.352 112.153 183.988 112.153C184.624 112.153 185.168 112.331 185.62 112.686C186.075 113.038 186.421 113.55 186.66 114.22C186.901 114.888 187.022 115.693 187.022 116.636C187.022 117.585 186.903 118.395 186.664 119.065C186.425 119.733 186.08 120.243 185.629 120.595C185.177 120.945 184.63 121.119 183.988 121.119ZM183.988 120.182C184.624 120.182 185.119 119.875 185.471 119.261C185.823 118.648 185.999 117.773 185.999 116.636C185.999 115.881 185.918 115.237 185.756 114.706C185.597 114.175 185.367 113.77 185.066 113.491C184.768 113.213 184.408 113.074 183.988 113.074C183.357 113.074 182.864 113.385 182.509 114.007C182.154 114.626 181.977 115.503 181.977 116.636C181.977 117.392 182.056 118.034 182.215 118.562C182.374 119.091 182.603 119.493 182.901 119.768C183.202 120.044 183.565 120.182 183.988 120.182ZM191.248 121.119C190.606 121.119 190.059 120.945 189.607 120.595C189.156 120.243 188.81 119.733 188.572 119.065C188.333 118.395 188.214 117.585 188.214 116.636C188.214 115.693 188.333 114.888 188.572 114.22C188.813 113.55 189.16 113.038 189.612 112.686C190.066 112.331 190.612 112.153 191.248 112.153C191.884 112.153 192.428 112.331 192.88 112.686C193.335 113.038 193.681 113.55 193.92 114.22C194.161 114.888 194.282 115.693 194.282 116.636C194.282 117.585 194.163 118.395 193.924 119.065C193.685 119.733 193.34 120.243 192.889 120.595C192.437 120.945 191.89 121.119 191.248 121.119ZM191.248 120.182C191.884 120.182 192.379 119.875 192.731 119.261C193.083 118.648 193.259 117.773 193.259 116.636C193.259 115.881 193.178 115.237 193.016 114.706C192.857 114.175 192.627 113.77 192.326 113.491C192.028 113.213 191.668 113.074 191.248 113.074C190.617 113.074 190.124 113.385 189.769 114.007C189.414 114.626 189.237 115.503 189.237 116.636C189.237 117.392 189.316 118.034 189.475 118.562C189.634 119.091 189.863 119.493 190.161 119.768C190.462 120.044 190.825 120.182 191.248 120.182Z" fill="#666666"/>
<path d="M333.5 101C333.5 96.8579 336.858 93.5 341 93.5H357C361.142 93.5 364.5 96.8579 364.5 101V117C364.5 121.142 361.142 124.5 357 124.5H341C336.858 124.5 333.5 121.142 333.5 117V101Z" fill="white"/>
<path d="M333.5 101C333.5 96.8579 336.858 93.5 341 93.5H357C361.142 93.5 364.5 96.8579 364.5 101V117C364.5 121.142 361.142 124.5 357 124.5H341C336.858 124.5 333.5 121.142 333.5 117V101Z" stroke="#E2EDFF"/>
<g clip-path="url(#clip0_8229_23096)">
<path d="M348.167 102.333H344.667C343.267 102.333 342.567 102.333 342.032 102.606C341.561 102.846 341.179 103.228 340.939 103.698C340.667 104.233 340.667 104.933 340.667 106.333V113.333C340.667 114.734 340.667 115.434 340.939 115.968C341.179 116.439 341.561 116.821 342.032 117.061C342.567 117.333 343.267 117.333 344.667 117.333H351.667C353.067 117.333 353.767 117.333 354.302 117.061C354.772 116.821 355.155 116.439 355.394 115.968C355.667 115.434 355.667 114.734 355.667 113.333V109.833M345.667 112.333H347.062C347.47 112.333 347.674 112.333 347.865 112.287C348.036 112.247 348.198 112.179 348.347 112.088C348.515 111.985 348.66 111.841 348.948 111.552L356.917 103.583C357.607 102.893 357.607 101.774 356.917 101.083C356.226 100.393 355.107 100.393 354.417 101.083L346.448 109.052C346.16 109.341 346.015 109.485 345.912 109.653C345.821 109.802 345.754 109.965 345.713 110.135C345.667 110.327 345.667 110.53 345.667 110.938V112.333Z" stroke="#0B387C" stroke-width="2" stroke-linecap="round" stroke-linejoin="round"/>
</g>
<path d="M377.5 101C377.5 96.8579 380.858 93.5 385 93.5H401C405.142 93.5 408.5 96.8579 408.5 101V117C408.5 121.142 405.142 124.5 401 124.5H385C380.858 124.5 377.5 121.142 377.5 117V101Z" fill="white"/>
<path d="M377.5 101C377.5 96.8579 380.858 93.5 385 93.5H401C405.142 93.5 408.5 96.8579 408.5 101V117C408.5 121.142 405.142 124.5 401 124.5H385C380.858 124.5 377.5 121.142 377.5 117V101Z" stroke="#E2EDFF"/>
<path d="M396.333 104V103.333C396.333 102.4 396.333 101.933 396.152 101.577C395.992 101.263 395.737 101.008 395.423 100.848C395.067 100.667 394.6 100.667 393.667 100.667H392.333C391.4 100.667 390.933 100.667 390.577 100.848C390.263 101.008 390.008 101.263 389.848 101.577C389.667 101.933 389.667 102.4 389.667 103.333V104M391.333 108.583V112.75M394.667 108.583V112.75M385.5 104H400.5M398.833 104V113.333C398.833 114.734 398.833 115.434 398.561 115.968C398.321 116.439 397.939 116.821 397.468 117.061C396.934 117.333 396.233 117.333 394.833 117.333H391.167C389.767 117.333 389.066 117.333 388.532 117.061C388.061 116.821 387.679 116.439 387.439 115.968C387.167 115.434 387.167 114.734 387.167 113.333V104" stroke="#0B387C" stroke-width="2" stroke-linecap="round" stroke-linejoin="round"/>
<defs>
<clipPath id="clip0_8229_23096">
<rect width="20" height="20" fill="white" transform="translate(339 99)"/>
</clipPath>
</defs>
</svg>
