<svg width="56" height="56" viewBox="0 0 56 56" fill="none" xmlns="http://www.w3.org/2000/svg">
<rect x="0.5" y="0.5" width="55" height="55" rx="7.5" fill="#F7FAFF"/>
<rect x="0.5" y="0.5" width="55" height="55" rx="7.5" stroke="#E2EDFF"/>
<path d="M28.0002 19.6663H20.5002C19.3951 19.6663 18.3353 19.2274 17.5539 18.446C16.7725 17.6646 16.3335 16.6047 16.3335 15.4997C16.3335 14.3946 16.7725 13.3348 17.5539 12.5534C18.3353 11.772 19.3951 11.333 20.5002 11.333C26.3335 11.333 28.0002 19.6663 28.0002 19.6663ZM28.0002 19.6663H35.5002C36.6052 19.6663 37.665 19.2274 38.4464 18.446C39.2278 17.6646 39.6668 16.6047 39.6668 15.4997C39.6668 14.3946 39.2278 13.3348 38.4464 12.5534C37.665 11.772 36.6052 11.333 35.5002 11.333C29.6668 11.333 28.0002 19.6663 28.0002 19.6663ZM28.0002 19.6663L28.0002 44.6663M11.3335 31.333H44.6668M11.3335 24.9997L11.3335 39.333C11.3335 41.1998 11.3335 42.1333 11.6968 42.8463C12.0164 43.4735 12.5263 43.9834 13.1535 44.303C13.8666 44.6663 14.8 44.6663 16.6668 44.6663L39.3335 44.6663C41.2003 44.6663 42.1338 44.6663 42.8468 44.303C43.474 43.9835 43.9839 43.4735 44.3035 42.8463C44.6668 42.1333 44.6668 41.1998 44.6668 39.333V24.9997C44.6668 23.1328 44.6668 22.1994 44.3035 21.4864C43.9839 20.8592 43.474 20.3492 42.8468 20.0297C42.1338 19.6663 41.2003 19.6663 39.3335 19.6663L16.6668 19.6663C14.8 19.6663 13.8666 19.6663 13.1535 20.0297C12.5263 20.3492 12.0164 20.8592 11.6968 21.4864C11.3335 22.1994 11.3335 23.1328 11.3335 24.9997Z" stroke="#0B387C" stroke-width="3.33333" stroke-linecap="round" stroke-linejoin="round"/>
</svg>
