<svg width="426" height="134" viewBox="0 0 426 134" fill="none" xmlns="http://www.w3.org/2000/svg">
<path d="M1 9C1 4.58172 4.58172 1 9 1H417C421.418 1 425 4.58172 425 9V53H1V9Z" fill="#F7FAFF"/>
<path d="M0.5 9C0.5 4.30558 4.30558 0.5 9 0.5H417C421.694 0.5 425.5 4.30558 425.5 9H424.5C424.5 4.85786 421.142 1.5 417 1.5H9C4.85786 1.5 1.5 4.85786 1.5 9H0.5ZM425 53H1H425ZM0.5 53V9C0.5 4.30558 4.30558 0.5 9 0.5V1.5C4.85786 1.5 1.5 4.85786 1.5 9V53H0.5ZM417 0.5C421.694 0.5 425.5 4.30558 425.5 9V53H424.5V9C424.5 4.85786 421.142 1.5 417 1.5V0.5Z" fill="#E2EDFF"/>
<path d="M15 81H1C1 78.7909 2.86057 77.0742 4.89496 76.2131C8.48278 74.6944 11 71.1412 11 67C11 62.8588 8.48278 59.3056 4.89496 57.7869C2.86057 56.9258 1 55.2091 1 53H15V81Z" fill="#F7FAFF"/>
<path d="M1 81V81C1 78.7909 2.86057 77.0742 4.89496 76.2131C8.48278 74.6944 11 71.1412 11 67C11 62.8588 8.48278 59.3056 4.89496 57.7869C2.86057 56.9258 1 55.2091 1 53V53" stroke="#E2EDFF"/>
<rect width="396" height="28" transform="translate(15 53)" fill="#F7FAFF"/>
<path d="M23 67L403 67" stroke="#E2EDFF" stroke-width="2" stroke-linecap="round" stroke-dasharray="5 5"/>
<path d="M411 53H425C425 55.2091 423.139 56.9258 421.105 57.7869C417.517 59.3056 415 62.8588 415 67C415 71.1412 417.517 74.6944 421.105 76.2131C423.139 77.0742 425 78.7909 425 81H411V53Z" fill="#F7FAFF"/>
<path d="M425 53V53C425 55.2091 423.139 56.9258 421.105 57.7869C417.517 59.3056 415 62.8588 415 67C415 71.1412 417.517 74.6944 421.105 76.2131C423.139 77.0742 425 78.7909 425 81V81" stroke="#E2EDFF"/>
<path d="M1 81H425V125C425 129.418 421.418 133 417 133H8.99999C4.58172 133 1 129.418 1 125V81Z" fill="#F7FAFF"/>
<path d="M1 81H425H1ZM425.5 125C425.5 129.694 421.694 133.5 417 133.5H9C4.30558 133.5 0.5 129.694 0.5 125H1.5C1.5 129.142 4.85786 132.5 9 132.5H417C421.142 132.5 424.5 129.142 424.5 125H425.5ZM9 133.5C4.30558 133.5 0.5 129.694 0.5 125V81H1.5V125C1.5 129.142 4.85786 132.5 9 132.5V133.5ZM425.5 81V125C425.5 129.694 421.694 133.5 417 133.5V132.5C421.142 132.5 424.5 129.142 424.5 125V81H425.5Z" fill="#E2EDFF"/>
</svg>
